<svg xmlns="http://www.w3.org/2000/svg" width="1280" height="800" viewBox="0 0 1280 800">
  <rect width="1280" height="800" fill="#F6F4EF"/>
  <rect x="0" y="0" width="1280" height="64" fill="#FFFFFF"/>
  <line x1="0" y1="64" x2="1280" y2="64" stroke="#E3DFD5"/>
  <text x="32" y="32" dominant-baseline="middle" font-family="'Source Serif 4', Georgia, serif" font-size="18" font-weight="600" fill="#3E4C74">StudyStack</text>
  <circle cx="1248" cy="32" r="18" fill="#3E4C74"/>
  <text x="1248" y="32" text-anchor="middle" dominant-baseline="middle" font-family="'Inter', sans-serif" font-size="13" font-weight="600" fill="#FFFFFF">LC</text>

  <path d="M56,104 L48,112 L56,120" fill="none" stroke="#2A2924" stroke-width="2" stroke-linecap="round" stroke-linejoin="round"/>
  <text x="72" y="112" font-family="'Source Serif 4', Georgia, serif" font-size="28" font-weight="600" fill="#2A2924">Manage Stacks</text>

  <rect x="728" y="88" width="300" height="40" rx="8" fill="#FFFFFF" stroke="#3E4C74" stroke-width="1.5"/>
  <circle cx="748" cy="108" r="5" fill="none" stroke="#6B675E" stroke-width="1.5"/>
  <line x1="752" y1="112" x2="757" y2="117" stroke="#6B675E" stroke-width="1.5" stroke-linecap="round"/>
  <text x="764" y="108" dominant-baseline="middle" font-family="'Inter', sans-serif" font-size="14" fill="#2A2924">Quantum Computing</text>

  <rect x="1052" y="88" width="180" height="40" rx="8" fill="#3E4C74"/>
  <g transform="translate(1072,108)" stroke="#FFFFFF" stroke-width="2" stroke-linecap="round">
    <line x1="-5" y1="0" x2="5" y2="0"/>
    <line x1="0" y1="-5" x2="0" y2="5"/>
  </g>
  <text x="1090" y="108" dominant-baseline="middle" font-family="'Inter', sans-serif" font-size="15" font-weight="600" fill="#FFFFFF">New Stack</text>

  <text x="640" y="420" text-anchor="middle" font-family="'Inter', sans-serif" font-size="17" fill="#6B675E">No stacks match &#8220;Quantum Computing&#8221;.</text>
</svg>
