<svg xmlns="http://www.w3.org/2000/svg" width="768" height="1024" viewBox="0 0 768 1024">
  <rect width="768" height="1024" fill="#F6F4EF"/>
  <rect x="0" y="0" width="768" height="60" fill="#FFFFFF"/>
  <line x1="0" y1="60" x2="768" y2="60" stroke="#E3DFD5"/>
  <text x="32" y="30" dominant-baseline="middle" font-family="'Source Serif 4', Georgia, serif" font-size="20" font-weight="600" fill="#3E4C74">StudyStack</text>
  <circle cx="718" cy="30" r="18" fill="#3E4C74"/>
  <text x="718" y="30" text-anchor="middle" dominant-baseline="middle" font-family="'Inter', sans-serif" font-size="13" font-weight="600" fill="#FFFFFF">LC</text>
  <path d="M44,92 L34,102 L44,112" fill="none" stroke="#2A2924" stroke-width="2.4" stroke-linecap="round" stroke-linejoin="round"/>
  <text x="60" y="108" font-family="'Source Serif 4', Georgia, serif" font-size="28" font-weight="600" fill="#2A2924">Manage Stacks</text>
  <rect x="32" y="140" width="704" height="48" rx="8" fill="#FFFFFF" stroke="#E3DFD5"/>
  <circle cx="56" cy="164" r="6" fill="none" stroke="#6B675E" stroke-width="1.8"/>
  <line x1="61" y1="169" x2="67" y2="175" stroke="#6B675E" stroke-width="1.8" stroke-linecap="round"/>
  <text x="78" y="164" dominant-baseline="middle" font-family="'Inter', sans-serif" font-size="16" fill="#6B675E">Search stacks...</text>
  <rect x="32" y="212" width="704" height="96" rx="10" fill="#FFFFFF" stroke="#E3DFD5"/>
  <text x="52" y="254" font-family="'Inter', sans-serif" font-size="20" font-weight="600" fill="#2A2924">C# Fundamentals</text>
  <text x="52" y="280" font-family="'Inter', sans-serif" font-size="15" fill="#6B675E">24 cards</text>
  <g transform="translate(660,258) rotate(45) scale(1.3)" stroke-linecap="round" stroke-linejoin="round">
    <rect x="-2" y="-8" width="4" height="12" rx="1" fill="none" stroke="#6B675E" stroke-width="1.5"/>
    <path d="M-2,4 L0,9 L2,4 Z" fill="#6B675E"/>
    <line x1="-2" y1="-3" x2="2" y2="-3" stroke="#6B675E" stroke-width="1.5"/>
  </g>
  <g transform="translate(704,256) scale(1.3)">
    <rect x="-7" y="-6" width="14" height="3" rx="1" fill="#B15C3E"/>
    <rect x="-5" y="-2" width="10" height="14" rx="2" fill="none" stroke="#B15C3E" stroke-width="1.5"/>
    <line x1="-2" y1="1" x2="-2" y2="9" stroke="#B15C3E" stroke-width="1.5"/>
    <line x1="2" y1="1" x2="2" y2="9" stroke="#B15C3E" stroke-width="1.5"/>
  </g>
  <rect x="32" y="324" width="704" height="96" rx="10" fill="#FFFFFF" stroke="#E3DFD5"/>
  <text x="52" y="366" font-family="'Inter', sans-serif" font-size="20" font-weight="600" fill="#2A2924">EF Core Patterns</text>
  <text x="52" y="392" font-family="'Inter', sans-serif" font-size="15" fill="#6B675E">12 cards</text>
  <g transform="translate(660,370) rotate(45) scale(1.3)" stroke-linecap="round" stroke-linejoin="round">
    <rect x="-2" y="-8" width="4" height="12" rx="1" fill="none" stroke="#6B675E" stroke-width="1.5"/>
    <path d="M-2,4 L0,9 L2,4 Z" fill="#6B675E"/>
    <line x1="-2" y1="-3" x2="2" y2="-3" stroke="#6B675E" stroke-width="1.5"/>
  </g>
  <g transform="translate(704,368) scale(1.3)">
    <rect x="-7" y="-6" width="14" height="3" rx="1" fill="#B15C3E"/>
    <rect x="-5" y="-2" width="10" height="14" rx="2" fill="none" stroke="#B15C3E" stroke-width="1.5"/>
    <line x1="-2" y1="1" x2="-2" y2="9" stroke="#B15C3E" stroke-width="1.5"/>
    <line x1="2" y1="1" x2="2" y2="9" stroke="#B15C3E" stroke-width="1.5"/>
  </g>
  <rect x="32" y="436" width="704" height="96" rx="10" fill="#FFFFFF" stroke="#E3DFD5"/>
  <text x="52" y="478" font-family="'Inter', sans-serif" font-size="20" font-weight="600" fill="#2A2924">Async/Await Deep Dive</text>
  <text x="52" y="504" font-family="'Inter', sans-serif" font-size="15" fill="#6B675E">8 cards</text>
  <g transform="translate(660,482) rotate(45) scale(1.3)" stroke-linecap="round" stroke-linejoin="round">
    <rect x="-2" y="-8" width="4" height="12" rx="1" fill="none" stroke="#6B675E" stroke-width="1.5"/>
    <path d="M-2,4 L0,9 L2,4 Z" fill="#6B675E"/>
    <line x1="-2" y1="-3" x2="2" y2="-3" stroke="#6B675E" stroke-width="1.5"/>
  </g>
  <g transform="translate(704,480) scale(1.3)">
    <rect x="-7" y="-6" width="14" height="3" rx="1" fill="#B15C3E"/>
    <rect x="-5" y="-2" width="10" height="14" rx="2" fill="none" stroke="#B15C3E" stroke-width="1.5"/>
    <line x1="-2" y1="1" x2="-2" y2="9" stroke="#B15C3E" stroke-width="1.5"/>
    <line x1="2" y1="1" x2="2" y2="9" stroke="#B15C3E" stroke-width="1.5"/>
  </g>
  <rect x="32" y="548" width="704" height="96" rx="10" fill="#FFFFFF" stroke="#E3DFD5"/>
  <text x="52" y="590" font-family="'Inter', sans-serif" font-size="20" font-weight="600" fill="#2A2924">Design Patterns</text>
  <text x="52" y="616" font-family="'Inter', sans-serif" font-size="15" fill="#6B675E">31 cards</text>
  <g transform="translate(660,594) rotate(45) scale(1.3)" stroke-linecap="round" stroke-linejoin="round">
    <rect x="-2" y="-8" width="4" height="12" rx="1" fill="none" stroke="#6B675E" stroke-width="1.5"/>
    <path d="M-2,4 L0,9 L2,4 Z" fill="#6B675E"/>
    <line x1="-2" y1="-3" x2="2" y2="-3" stroke="#6B675E" stroke-width="1.5"/>
  </g>
  <g transform="translate(704,592) scale(1.3)">
    <rect x="-7" y="-6" width="14" height="3" rx="1" fill="#B15C3E"/>
    <rect x="-5" y="-2" width="10" height="14" rx="2" fill="none" stroke="#B15C3E" stroke-width="1.5"/>
    <line x1="-2" y1="1" x2="-2" y2="9" stroke="#B15C3E" stroke-width="1.5"/>
    <line x1="2" y1="1" x2="2" y2="9" stroke="#B15C3E" stroke-width="1.5"/>
  </g>
  <circle cx="704" cy="960" r="32" fill="#3E4C74"/>
  <g transform="translate(704,960)" stroke="#FFFFFF" stroke-width="3.5" stroke-linecap="round">
    <line x1="-11" y1="0" x2="11" y2="0"/>
    <line x1="0" y1="-11" x2="0" y2="11"/>
  </g>
</svg>
