<svg xmlns="http://www.w3.org/2000/svg" width="390" height="844" viewBox="0 0 390 844">
  <rect width="390" height="844" fill="#F6F4EF"/>
  <rect x="0" y="0" width="390" height="48" fill="#FFFFFF"/>
  <line x1="0" y1="48" x2="390" y2="48" stroke="#E3DFD5"/>
  <text x="16" y="24" dominant-baseline="middle" font-family="'Source Serif 4', Georgia, serif" font-size="15" font-weight="600" fill="#3E4C74">StudyStack</text>
  <circle cx="366" cy="24" r="14" fill="#3E4C74"/>
  <text x="366" y="24" text-anchor="middle" dominant-baseline="middle" font-family="'Inter', sans-serif" font-size="11" font-weight="600" fill="#FFFFFF">LC</text>

  <path d="M28,80 L20,88 L28,96" fill="none" stroke="#2A2924" stroke-width="2" stroke-linecap="round" stroke-linejoin="round"/>
  <text x="44" y="88" font-family="'Source Serif 4', Georgia, serif" font-size="22" font-weight="600" fill="#2A2924">Manage Stacks</text>

  <rect x="20" y="164" width="350" height="76" rx="8" fill="#FFFFFF" stroke="#E3DFD5"/>
  <text x="36" y="194" font-family="'Inter', sans-serif" font-size="16" font-weight="600" fill="#2A2924">C# Fundamentals</text>
  <text x="36" y="216" font-family="'Inter', sans-serif" font-size="13" fill="#6B675E">24 cards</text>

  <rect x="0" y="0" width="390" height="844" fill="#000000" opacity="0.45"/>

  <rect x="20" y="300" width="350" height="252" rx="14" fill="#FFFFFF" stroke="#E3DFD5"/>

  <text x="44" y="340" font-family="'Source Serif 4', Georgia, serif" font-size="19" font-weight="600" fill="#2A2924">New Stack</text>
  <g transform="translate(342,332)" stroke="#6B675E" stroke-width="1.8" stroke-linecap="round">
    <line x1="-6" y1="-6" x2="6" y2="6"/>
    <line x1="6" y1="-6" x2="-6" y2="6"/>
  </g>

  <text x="44" y="378" font-family="'Inter', sans-serif" font-size="11" font-weight="600" letter-spacing="1" fill="#6B675E">STACK NAME</text>
  <rect x="44" y="388" width="302" height="48" rx="8" fill="#FBFAF6" stroke="#E3DFD5"/>
  <text x="58" y="412" dominant-baseline="middle" font-family="'Inter', sans-serif" font-size="14" fill="#6B675E">e.g. C# Fundamentals</text>

  <text x="252" y="512" text-anchor="end" dominant-baseline="middle" font-family="'Inter', sans-serif" font-size="15" fill="#6B675E">Cancel</text>
  <rect x="262" y="492" width="84" height="40" rx="8" fill="#3E4C74"/>
  <text x="304" y="512" text-anchor="middle" dominant-baseline="middle" font-family="'Inter', sans-serif" font-size="15" font-weight="600" fill="#FFFFFF">Save</text>
</svg>
